<?xml version="1.0" encoding="UTF-8" standalone="no"?>
<!DOCTYPE svg PUBLIC "-//W3C//DTD SVG 1.1//EN" "http://www.w3.org/Graphics/SVG/1.1/DTD/svg11.dtd">
<svg width="100%" height="100%" viewBox="0 0 1640 2089" version="1.1" xmlns="http://www.w3.org/2000/svg" xmlns:xlink="http://www.w3.org/1999/xlink" xml:space="preserve" xmlns:serif="http://www.serif.com/" style="fill-rule:evenodd;clip-rule:evenodd;stroke-linejoin:round;stroke-miterlimit:2;">
    <g transform="matrix(1,0,0,1,-1376.33,-175.049)">
        <path d="M1427.51,225.817L1947.72,736.896L1675.88,812.938L1427.51,225.817ZM1970.88,744.998L2196,710L2421.12,744.998L2389.01,812.888L2216.6,904.55L2175.4,904.55L2002.99,812.888L1970.88,744.998ZM2444.28,736.896L2964.49,225.817L2716.12,812.938L2444.28,736.896ZM2970.98,274.656L2837.31,846.836L2740.4,819.728L2970.98,274.656ZM2838.09,881.978L2855.37,991.142L2800.43,968.4L2838.09,881.978ZM2842.93,1039.55L2715.45,1299.78C2714.3,1299.21 2713.04,1298.82 2711.7,1298.63L2581.73,1280.36L2842.93,1039.55ZM2704.17,1322.82L2686.75,1358.37L2517.69,1470.18L2563.03,1302.97L2704.17,1322.82ZM2665.03,1402.71L2624.03,1486.4L2484.56,1592.38L2507.79,1506.7L2665.03,1402.71ZM2464.34,1616.66L2434,1709L2377.29,1726.63C2376.14,1725.17 2374.65,1723.95 2372.86,1723.1L2253.68,1666.4L2215.04,1546.34L2464.34,1616.66ZM2343.91,1737.01L2196,1783L2048.09,1737.01L2151.38,1687.87L2240.62,1687.87L2343.91,1737.01ZM2014.71,1726.63L1958,1709L1927.66,1616.66L2176.96,1546.34L2138.32,1666.4L2019.14,1723.1C2017.35,1723.95 2015.86,1725.17 2014.71,1726.63ZM1907.44,1592.38L1767.97,1486.4L1726.97,1402.71L1884.21,1506.7L1907.44,1592.38ZM1705.25,1358.37L1674.88,1296.37L1828.51,1301.26L1874.31,1470.18L1705.25,1358.37ZM1663.15,1272.43L1549.07,1039.55L1805,1275.5L1669.05,1271.17C1666.93,1271.1 1664.93,1271.56 1663.15,1272.43ZM1536.63,991.142L1553.91,881.977L1591.57,968.4L1536.63,991.142ZM1554.69,846.836L1421.02,274.656L1651.6,819.728L1554.69,846.836ZM2128.53,1393.04L2190.31,1516.6L1961.33,1581.18L2127.91,1393.04L2128.53,1393.04ZM2291.76,1386.58L2337,1372.01L2411.83,1522.19L2291.76,1386.58ZM2404.08,839.501L2538.49,915.823L2741.86,975.73L2265.66,1132.2L2404.08,839.501ZM1980.17,1522.19L2055,1372.01L2100.24,1386.58L1980.17,1522.19ZM2776.84,959.97L2600.49,908.022L2813.92,874.862L2776.84,959.97ZM2226.28,1662.87L2165.72,1662.87L2196,1568.78L2226.28,1662.87ZM1578.08,874.862L1791.51,908.022L1615.16,959.97L1578.08,874.862ZM1951.21,761.879L1977.2,816.838L1846.2,891.22L1616.44,855.523L1671.72,840.06C1671.91,840.01 1672.1,839.957 1672.29,839.903L1951.21,761.879ZM2464.32,1571.48L2361.07,1364.26L2535.76,1308.02L2464.32,1571.48ZM1816.71,1058.23L1868.52,1184.22L1667.23,1009.78L1816.71,1058.23ZM2523.48,1184.21L2575.99,1056.55L2728.69,1006.37L2523.48,1184.21ZM2375.46,1122.44L2465.09,1234.82L2347.4,1336.82L2259.55,1160.52L2375.46,1122.44ZM2201.69,1516.6L2263.47,1393.04L2264.09,1393.04L2430.67,1581.18L2201.69,1516.6ZM2230.86,1165.66L2255.6,1368.04L2136.4,1368.04L2161.14,1165.66L2230.86,1165.66ZM2111.71,1364L2066.28,1349.38L2128.85,1223.79L2111.71,1364ZM1987.92,839.501L2126.41,1132.35L1646.54,976.79L1853.51,915.823L1987.92,839.501ZM2230.87,925.279L2371.13,850.712L2249.74,1107.38L2230.87,925.279ZM2161.13,925.279L2142.26,1107.38L2020.87,850.712L2161.13,925.279ZM2263.15,1223.79L2325.72,1349.38L2280.29,1364L2263.15,1223.79ZM1856.24,1308.02L2030.93,1364.26L1927.68,1571.48L1856.24,1308.02ZM2837.32,1010.73L2547.4,1278.01L2397.88,1326.14L2786.24,989.582L2837.32,1010.73ZM1926.91,1234.82L2016.18,1122.89L2132.42,1160.57L2044.6,1336.82L1926.91,1234.82ZM2440.79,761.879L2719.69,839.896C2719.89,839.955 2720.1,840.012 2720.3,840.065L2775.56,855.523L2545.8,891.22L2414.8,816.838L2440.79,761.879ZM2228.06,1140.66L2163.94,1140.66L2185.82,929.55L2206.18,929.55L2228.06,1140.66ZM1554.68,1010.73L1605.4,989.731L1606.25,990.007L1994.12,1326.14L1844.6,1278.01L1554.68,1010.73Z" style="fill:rgb(254,0,104);"/>
        <g transform="matrix(1.57754,0,0,1.57754,-679.343,-1349.38)">
            <g transform="matrix(176.963,0,0,176.963,1326.03,2184.96)">
                <path d="M0.774,-0.564L0.774,-0.72L0.204,-0.72C0.122,-0.72 0.056,-0.654 0.056,-0.572L0.056,-0.148C0.056,-0.066 0.122,-0 0.204,-0L0.774,-0L0.774,-0.156L0.211,-0.156L0.211,-0.564L0.774,-0.564Z" style="fill-rule:nonzero;"/>
            </g>
            <g transform="matrix(176.963,0,0,176.963,1471.49,2184.96)">
                <path d="M0.206,-0.72C0.124,-0.72 0.058,-0.654 0.058,-0.572L0.058,-0L0.213,-0L0.213,-0.232L0.621,-0.232L0.621,-0L0.778,-0L0.778,-0.572C0.778,-0.654 0.711,-0.72 0.629,-0.72L0.206,-0.72ZM0.213,-0.388L0.213,-0.564L0.621,-0.564L0.621,-0.388L0.213,-0.388Z" style="fill-rule:nonzero;"/>
            </g>
            <g transform="matrix(176.963,0,0,176.963,1619.43,2184.96)">
                <path d="M0.02,-0.72L0.02,-0.564L0.302,-0.564L0.302,-0L0.458,-0L0.458,-0.564L0.74,-0.564L0.74,-0.72L0.02,-0.72Z" style="fill-rule:nonzero;"/>
            </g>
            <g transform="matrix(176.963,0,0,176.963,1753.75,2184.96)">
                <path d="M0.59,-0.72L0.444,-0.545C0.414,-0.509 0.384,-0.473 0.354,-0.438L0.213,-0.438L0.213,-0.72L0.057,-0.72L0.057,-0L0.213,-0L0.213,-0.282L0.354,-0.282L0.59,-0L0.752,-0L0.752,-0.054C0.668,-0.154 0.579,-0.259 0.495,-0.36L0.752,-0.666L0.752,-0.72L0.59,-0.72Z" style="fill-rule:nonzero;"/>
            </g>
            <g transform="matrix(176.963,0,0,176.963,1894.79,2184.96)">
                <path d="M0.723,-0.72L0.058,-0.72L0.058,-0L0.723,-0L0.723,-0.156L0.215,-0.156L0.215,-0.282L0.624,-0.282L0.624,-0.438L0.215,-0.438L0.215,-0.564L0.723,-0.564L0.723,-0.72Z" style="fill-rule:nonzero;"/>
            </g>
            <g transform="matrix(176.963,0,0,176.963,2030.34,2184.96)">
                <path d="M0.653,-0.72C0.581,-0.628 0.501,-0.528 0.428,-0.436L0.202,-0.72L0.017,-0.72C0.073,-0.643 0.156,-0.529 0.219,-0.445L0.35,-0.269L0.35,-0L0.506,-0L0.506,-0.268L0.84,-0.72L0.653,-0.72Z" style="fill-rule:nonzero;"/>
            </g>
            <g transform="matrix(176.963,0,0,176.963,2172.97,2184.96)">
                <path d="M0.771,-0.572C0.771,-0.654 0.704,-0.72 0.623,-0.72L0.199,-0.72C0.117,-0.72 0.051,-0.654 0.051,-0.572L0.051,-0.43C0.051,-0.348 0.117,-0.282 0.199,-0.282L0.614,-0.282L0.614,-0.156L0.206,-0.156L0.206,-0.215L0.051,-0.215L0.051,-0.148C0.051,-0.066 0.117,-0 0.199,-0L0.623,-0C0.704,-0 0.771,-0.066 0.771,-0.148L0.771,-0.29C0.771,-0.372 0.704,-0.438 0.623,-0.438L0.206,-0.438L0.206,-0.564L0.614,-0.564L0.614,-0.505L0.771,-0.505L0.771,-0.572Z" style="fill-rule:nonzero;"/>
            </g>
        </g>
        <g transform="matrix(0.874628,0,0,0.874628,288.159,301.456)">
            <g transform="matrix(90.5147,0,0,90.5147,1359.85,2243.9)">
                <path d="M0.186,-0.612C0.18,-0.612 0.175,-0.61 0.171,-0.606C0.166,-0.601 0.164,-0.596 0.164,-0.59L0.164,-0.13C0.164,-0.124 0.166,-0.119 0.171,-0.115C0.175,-0.11 0.18,-0.108 0.186,-0.108L0.774,-0.108L0.774,-0L0.186,-0C0.168,-0 0.151,-0.003 0.136,-0.01C0.12,-0.017 0.106,-0.026 0.094,-0.038C0.082,-0.05 0.073,-0.064 0.066,-0.08C0.059,-0.095 0.056,-0.112 0.056,-0.13L0.056,-0.59C0.056,-0.608 0.059,-0.625 0.066,-0.641C0.073,-0.656 0.082,-0.67 0.094,-0.682C0.106,-0.694 0.12,-0.703 0.136,-0.71C0.151,-0.717 0.168,-0.72 0.186,-0.72L0.774,-0.72L0.774,-0.612L0.186,-0.612Z" style="fill-rule:nonzero;"/>
            </g>
            <g transform="matrix(90.5147,0,0,90.5147,1438.78,2243.9)">
                <path d="M0.057,-0.721L0.165,-0.721L0.165,-0.108L0.777,-0.108L0.777,-0L0.057,-0L0.057,-0.721Z" style="fill-rule:nonzero;"/>
            </g>
            <g transform="matrix(90.5147,0,0,90.5147,1513.82,2243.9)">
                <rect x="0.057" y="-0.72" width="0.108" height="0.72"/>
            </g>
            <g transform="matrix(90.5147,0,0,90.5147,1538.26,2243.9)">
                <path d="M0.718,-0.612L0.166,-0.612L0.166,-0.414L0.61,-0.414L0.61,-0.306L0.166,-0.306L0.166,-0.108L0.718,-0.108L0.718,-0L0.058,-0L0.058,-0.72L0.718,-0.72L0.718,-0.612Z" style="fill-rule:nonzero;"/>
            </g>
            <g transform="matrix(90.5147,0,0,90.5147,1612.12,2243.9)">
                <path d="M0.668,-0.72L0.776,-0.72L0.776,-0L0.648,-0L0.164,-0.576L0.164,-0L0.056,-0L0.056,-0.72L0.184,-0.72L0.668,-0.144L0.668,-0.72Z" style="fill-rule:nonzero;"/>
            </g>
            <g transform="matrix(90.5147,0,0,90.5147,1691.95,2243.9)">
                <path d="M0.74,-0.72L0.74,-0.612L0.434,-0.612L0.434,-0L0.326,-0L0.326,-0.612L0.02,-0.612L0.02,-0.72L0.74,-0.72Z" style="fill-rule:nonzero;"/>
            </g>
            <g transform="matrix(90.5147,0,0,90.5147,1795.95,2243.9)">
                <path d="M0.648,-0.72C0.666,-0.72 0.683,-0.717 0.699,-0.71C0.714,-0.703 0.728,-0.694 0.74,-0.682C0.752,-0.67 0.761,-0.656 0.768,-0.641C0.775,-0.625 0.778,-0.608 0.778,-0.59L0.778,-0L0.67,-0L0.67,-0.252L0.166,-0.252L0.166,-0L0.058,-0L0.058,-0.59C0.058,-0.608 0.061,-0.625 0.068,-0.641C0.075,-0.656 0.084,-0.67 0.096,-0.682C0.108,-0.694 0.122,-0.703 0.138,-0.71C0.153,-0.717 0.17,-0.72 0.188,-0.72L0.648,-0.72ZM0.67,-0.36L0.67,-0.59C0.67,-0.596 0.668,-0.601 0.664,-0.606C0.659,-0.61 0.654,-0.612 0.648,-0.612L0.188,-0.612C0.182,-0.612 0.177,-0.61 0.173,-0.606C0.168,-0.601 0.166,-0.596 0.166,-0.59L0.166,-0.36L0.67,-0.36Z" style="fill-rule:nonzero;"/>
            </g>
            <g transform="matrix(90.5147,0,0,90.5147,1876.15,2243.9)">
                <path d="M0.666,-0.72L0.774,-0.72L0.774,-0.13C0.774,-0.112 0.771,-0.095 0.764,-0.08C0.757,-0.064 0.748,-0.05 0.736,-0.038C0.724,-0.026 0.71,-0.017 0.695,-0.01C0.679,-0.003 0.662,-0 0.644,-0L0.184,-0C0.166,-0 0.149,-0.003 0.134,-0.01C0.118,-0.017 0.104,-0.026 0.092,-0.038C0.08,-0.05 0.071,-0.064 0.064,-0.08C0.057,-0.095 0.054,-0.112 0.054,-0.13L0.054,-0.72L0.162,-0.72L0.162,-0.13C0.162,-0.124 0.164,-0.119 0.169,-0.115C0.173,-0.11 0.178,-0.108 0.184,-0.108L0.644,-0.108C0.65,-0.108 0.655,-0.11 0.66,-0.115C0.664,-0.119 0.666,-0.124 0.666,-0.13L0.666,-0.72Z" style="fill-rule:nonzero;"/>
            </g>
            <g transform="matrix(90.5147,0,0,90.5147,1955.62,2243.9)">
                <path d="M0.74,-0.72L0.74,-0.612L0.434,-0.612L0.434,-0L0.326,-0L0.326,-0.612L0.02,-0.612L0.02,-0.72L0.74,-0.72Z" style="fill-rule:nonzero;"/>
            </g>
            <g transform="matrix(90.5147,0,0,90.5147,2029.75,2243.9)">
                <path d="M0.794,-0.72L0.794,-0L0.686,-0L0.686,-0.306L0.165,-0.306L0.165,-0L0.057,-0L0.057,-0.72L0.165,-0.72L0.165,-0.414L0.686,-0.414L0.686,-0.72L0.794,-0.72Z" style="fill-rule:nonzero;"/>
            </g>
            <g transform="matrix(90.5147,0,0,90.5147,2111.3,2243.9)">
                <path d="M0.718,-0.612L0.166,-0.612L0.166,-0.414L0.61,-0.414L0.61,-0.306L0.166,-0.306L0.166,-0.108L0.718,-0.108L0.718,-0L0.058,-0L0.058,-0.72L0.718,-0.72L0.718,-0.612Z" style="fill-rule:nonzero;"/>
            </g>
            <g transform="matrix(90.5147,0,0,90.5147,2185.16,2243.9)">
                <path d="M0.668,-0.72L0.776,-0.72L0.776,-0L0.648,-0L0.164,-0.576L0.164,-0L0.056,-0L0.056,-0.72L0.184,-0.72L0.668,-0.144L0.668,-0.72Z" style="fill-rule:nonzero;"/>
            </g>
            <g transform="matrix(90.5147,0,0,90.5147,2265,2243.9)">
                <path d="M0.74,-0.72L0.74,-0.612L0.434,-0.612L0.434,-0L0.326,-0L0.326,-0.612L0.02,-0.612L0.02,-0.72L0.74,-0.72Z" style="fill-rule:nonzero;"/>
            </g>
            <g transform="matrix(90.5147,0,0,90.5147,2338.23,2243.9)">
                <rect x="0.057" y="-0.72" width="0.108" height="0.72"/>
            </g>
            <g transform="matrix(90.5147,0,0,90.5147,2362.66,2243.9)">
                <path d="M0.186,-0.612C0.18,-0.612 0.175,-0.61 0.171,-0.606C0.166,-0.601 0.164,-0.596 0.164,-0.59L0.164,-0.13C0.164,-0.124 0.166,-0.119 0.171,-0.115C0.175,-0.11 0.18,-0.108 0.186,-0.108L0.774,-0.108L0.774,-0L0.186,-0C0.168,-0 0.151,-0.003 0.136,-0.01C0.12,-0.017 0.106,-0.026 0.094,-0.038C0.082,-0.05 0.073,-0.064 0.066,-0.08C0.059,-0.095 0.056,-0.112 0.056,-0.13L0.056,-0.59C0.056,-0.608 0.059,-0.625 0.066,-0.641C0.073,-0.656 0.082,-0.67 0.094,-0.682C0.106,-0.694 0.12,-0.703 0.136,-0.71C0.151,-0.717 0.168,-0.72 0.186,-0.72L0.774,-0.72L0.774,-0.612L0.186,-0.612Z" style="fill-rule:nonzero;"/>
            </g>
            <g transform="matrix(90.5147,0,0,90.5147,2441.59,2243.9)">
                <path d="M0.648,-0.72C0.666,-0.72 0.683,-0.717 0.699,-0.71C0.714,-0.703 0.728,-0.694 0.74,-0.682C0.752,-0.67 0.761,-0.656 0.768,-0.641C0.775,-0.625 0.778,-0.608 0.778,-0.59L0.778,-0L0.67,-0L0.67,-0.252L0.166,-0.252L0.166,-0L0.058,-0L0.058,-0.59C0.058,-0.608 0.061,-0.625 0.068,-0.641C0.075,-0.656 0.084,-0.67 0.096,-0.682C0.108,-0.694 0.122,-0.703 0.138,-0.71C0.153,-0.717 0.17,-0.72 0.188,-0.72L0.648,-0.72ZM0.67,-0.36L0.67,-0.59C0.67,-0.596 0.668,-0.601 0.664,-0.606C0.659,-0.61 0.654,-0.612 0.648,-0.612L0.188,-0.612C0.182,-0.612 0.177,-0.61 0.173,-0.606C0.168,-0.601 0.166,-0.596 0.166,-0.59L0.166,-0.36L0.67,-0.36Z" style="fill-rule:nonzero;"/>
            </g>
            <g transform="matrix(90.5147,0,0,90.5147,2521.79,2243.9)">
                <path d="M0.74,-0.72L0.74,-0.612L0.434,-0.612L0.434,-0L0.326,-0L0.326,-0.612L0.02,-0.612L0.02,-0.72L0.74,-0.72Z" style="fill-rule:nonzero;"/>
            </g>
            <g transform="matrix(90.5147,0,0,90.5147,2595.02,2243.9)">
                <path d="M0.718,-0.612L0.166,-0.612L0.166,-0.414L0.61,-0.414L0.61,-0.306L0.166,-0.306L0.166,-0.108L0.718,-0.108L0.718,-0L0.058,-0L0.058,-0.72L0.718,-0.72L0.718,-0.612Z" style="fill-rule:nonzero;"/>
            </g>
            <g transform="matrix(90.5147,0,0,90.5147,2668.88,2243.9)">
                <path d="M0.648,-0.72C0.666,-0.72 0.683,-0.717 0.699,-0.71C0.714,-0.703 0.728,-0.694 0.74,-0.682C0.752,-0.67 0.761,-0.656 0.768,-0.641C0.775,-0.625 0.778,-0.608 0.778,-0.59L0.778,-0.13C0.778,-0.112 0.775,-0.095 0.768,-0.08C0.761,-0.064 0.752,-0.05 0.74,-0.038C0.728,-0.026 0.714,-0.017 0.699,-0.01C0.683,-0.003 0.666,-0 0.648,-0L0.058,-0L0.058,-0.72L0.648,-0.72ZM0.67,-0.59C0.67,-0.596 0.668,-0.601 0.664,-0.606C0.659,-0.61 0.654,-0.612 0.648,-0.612L0.188,-0.612C0.182,-0.612 0.177,-0.61 0.173,-0.606C0.168,-0.601 0.166,-0.596 0.166,-0.59L0.166,-0.13C0.166,-0.124 0.168,-0.119 0.173,-0.115C0.177,-0.11 0.182,-0.108 0.188,-0.108L0.648,-0.108C0.654,-0.108 0.659,-0.11 0.664,-0.115C0.668,-0.119 0.67,-0.124 0.67,-0.13L0.67,-0.59Z" style="fill-rule:nonzero;"/>
            </g>
            <g transform="matrix(90.5147,0,0,90.5147,2779.67,2243.9)">
                <path d="M0.74,-0.72L0.74,-0.612L0.434,-0.612L0.434,-0L0.326,-0L0.326,-0.612L0.02,-0.612L0.02,-0.72L0.74,-0.72Z" style="fill-rule:nonzero;"/>
            </g>
            <g transform="matrix(90.5147,0,0,90.5147,2852.89,2243.9)">
                <path d="M0.057,-0.721L0.165,-0.721L0.165,-0.108L0.777,-0.108L0.777,-0L0.057,-0L0.057,-0.721Z" style="fill-rule:nonzero;"/>
            </g>
            <g transform="matrix(90.5147,0,0,90.5147,2927.93,2243.9)">
                <path d="M0.771,-0.548L0.663,-0.548L0.663,-0.59C0.663,-0.596 0.661,-0.601 0.657,-0.606C0.652,-0.61 0.647,-0.612 0.641,-0.612L0.181,-0.612C0.175,-0.612 0.17,-0.61 0.166,-0.606C0.161,-0.601 0.159,-0.596 0.159,-0.59L0.159,-0.436C0.159,-0.43 0.161,-0.425 0.166,-0.421C0.17,-0.416 0.175,-0.414 0.181,-0.414L0.641,-0.414C0.659,-0.414 0.676,-0.411 0.692,-0.404C0.707,-0.397 0.721,-0.388 0.733,-0.376C0.745,-0.364 0.754,-0.35 0.761,-0.335C0.768,-0.319 0.771,-0.302 0.771,-0.284L0.771,-0.13C0.771,-0.112 0.768,-0.095 0.761,-0.08C0.754,-0.064 0.745,-0.05 0.733,-0.038C0.721,-0.026 0.707,-0.017 0.692,-0.01C0.676,-0.003 0.659,-0 0.641,-0L0.181,-0C0.163,-0 0.146,-0.003 0.131,-0.01C0.115,-0.017 0.101,-0.026 0.089,-0.038C0.077,-0.05 0.068,-0.064 0.061,-0.08C0.054,-0.095 0.051,-0.112 0.051,-0.13L0.051,-0.172L0.159,-0.172L0.159,-0.13C0.159,-0.124 0.161,-0.119 0.166,-0.115C0.17,-0.11 0.175,-0.108 0.181,-0.108L0.641,-0.108C0.647,-0.108 0.652,-0.11 0.657,-0.115C0.661,-0.119 0.663,-0.124 0.663,-0.13L0.663,-0.284C0.663,-0.29 0.661,-0.295 0.657,-0.3C0.652,-0.304 0.647,-0.306 0.641,-0.306L0.181,-0.306C0.163,-0.306 0.146,-0.309 0.131,-0.316C0.115,-0.323 0.101,-0.332 0.089,-0.344C0.077,-0.356 0.068,-0.37 0.061,-0.386C0.054,-0.401 0.051,-0.418 0.051,-0.436L0.051,-0.59C0.051,-0.608 0.054,-0.625 0.061,-0.641C0.068,-0.656 0.077,-0.67 0.089,-0.682C0.101,-0.694 0.115,-0.703 0.131,-0.71C0.146,-0.717 0.163,-0.72 0.181,-0.72L0.641,-0.72C0.659,-0.72 0.676,-0.717 0.692,-0.71C0.707,-0.703 0.721,-0.694 0.733,-0.682C0.745,-0.67 0.754,-0.656 0.761,-0.641C0.768,-0.625 0.771,-0.608 0.771,-0.59L0.771,-0.548Z" style="fill-rule:nonzero;"/>
            </g>
        </g>
    </g>
</svg>
