<?xml version="1.0" encoding="UTF-8" standalone="no"?>
<!DOCTYPE svg PUBLIC "-//W3C//DTD SVG 1.1//EN" "http://www.w3.org/Graphics/SVG/1.1/DTD/svg11.dtd">
<svg width="100%" height="100%" viewBox="0 0 1640 2089" version="1.1" xmlns="http://www.w3.org/2000/svg" xmlns:xlink="http://www.w3.org/1999/xlink" xml:space="preserve" xmlns:serif="http://www.serif.com/" style="fill-rule:evenodd;clip-rule:evenodd;stroke-linecap:round;stroke-miterlimit:2;">
    <g transform="matrix(1,0,0,1,-1376.33,-175.049)">
        <path d="M2196,710L2434,747L2987.72,203L2834.46,859.021L2858.12,1008.55L2624.03,1486.4L2468.25,1604.77L2434,1709L2196,1783L1958,1709L1923.75,1604.77L1767.97,1486.4L1533.88,1008.55L1557.54,859.021L1404.28,203L1958,747L2196,710Z" style="fill:rgb(254,0,104);"/>
        <path d="M1697.77,1368.41L1895.04,1498.88" style="fill:none;stroke:white;stroke-width:25px;"/>
        <g transform="matrix(-1,0,0,1,4392,0)">
            <path d="M1695.23,1366.73L1895.04,1498.88" style="fill:none;stroke:white;stroke-width:25px;stroke-linecap:butt;"/>
        </g>
        <g transform="matrix(-1,-1.22465e-16,1.22465e-16,-1,4393.72,2744.48)">
            <path d="M2197.72,1216.5L2271.44,1363.94L2124,1363.94L2197.72,1216.5Z" style="fill:white;stroke:white;stroke-width:25px;stroke-miterlimit:1.5;"/>
        </g>
        <path d="M2150.08,1153.16L2174.55,917.05L2217.45,917.05L2241.92,1153.16" style="fill:none;stroke:white;stroke-width:25px;stroke-miterlimit:1.5;"/>
        <path d="M2122.28,1380.54L2150.08,1153.16L2241.92,1153.16L2269.72,1380.54L2122.28,1380.54Z" style="fill:none;stroke:white;stroke-width:25px;stroke-miterlimit:1.5;"/>
        <path d="M2150.08,1153.16L1958,747" style="fill:none;stroke:white;stroke-width:25px;stroke-miterlimit:1.5;"/>
        <path d="M1533.88,1008.55L1838.15,1289.06L1923.75,1604.77L2122.28,1380.54" style="fill:none;stroke:white;stroke-width:25px;stroke-miterlimit:1.5;"/>
        <path d="M2122.28,1380.54L2150.08,1153.16" style="fill:none;stroke:white;stroke-width:25px;stroke-miterlimit:1.5;"/>
        <path d="M2122.28,1380.54L1838.15,1289.06" style="fill:none;stroke:white;stroke-width:25px;stroke-miterlimit:1.5;"/>
        <path d="M1608.11,975.079L1557.54,859.021" style="fill:none;stroke:white;stroke-width:25px;stroke-miterlimit:1.5;"/>
        <path d="M1608.11,975.079L1534.39,1005.6" style="fill:none;stroke:white;stroke-width:25px;stroke-miterlimit:1.5;"/>
        <path d="M2196,1527.98L2148.56,1675.37" style="fill:none;stroke:white;stroke-width:25px;stroke-miterlimit:1.5;"/>
        <g transform="matrix(1,0,0,-1,-876.458,1606.02)">
            <path d="M2434,747L2834.46,859.021" style="fill:none;stroke:white;stroke-width:25px;stroke-miterlimit:1.5;"/>
        </g>
        <path d="M2196,1527.98L1923.75,1604.77" style="fill:none;stroke:white;stroke-width:25px;stroke-miterlimit:1.5;"/>
        <path d="M1926.74,1601.39L2150.08,1153.16" style="fill:none;stroke:white;stroke-width:25px;stroke-miterlimit:1.5;"/>
        <g transform="matrix(-1,0,0,1,4392,0)">
            <path d="M2834.46,859.021L2543.41,904.24" style="fill:none;stroke:white;stroke-width:25px;stroke-linejoin:bevel;stroke-miterlimit:1.5;"/>
        </g>
        <g transform="matrix(-1,0,0,1,4392,0)">
            <path d="M2150.08,1153.16L1608.11,975.079L2048.6,1356.82" style="fill:none;stroke:white;stroke-width:25px;stroke-miterlimit:1.5;"/>
        </g>
        <g transform="matrix(1,0,0,1,17.6033,178.211)">
            <path d="M1901.51,1066.38L2006.91,934.241L1792.87,864.859L1861.49,1031.71L1901.51,1066.38Z" style="fill:white;"/>
        </g>
        <g transform="matrix(-1,0,0,1,4374.4,178.211)">
            <path d="M1901.51,1066.38L2006.91,934.241L1792.87,864.859L1861.49,1031.71L1901.51,1066.38Z" style="fill:white;"/>
        </g>
        <path d="M2048.6,1356.82L1608.11,975.079" style="fill:none;stroke:white;stroke-width:25px;stroke-miterlimit:1.5;"/>
        <g transform="matrix(-1,0,0,1,4392,0)">
            <path d="M2150.08,1153.16L1958,747" style="fill:none;stroke:white;stroke-width:25px;stroke-miterlimit:1.5;"/>
        </g>
        <g transform="matrix(-1,0,0,1,4392,0)">
            <path d="M1533.88,1008.55L1838.15,1289.06L1923.75,1604.77L2122.28,1380.54" style="fill:none;stroke:white;stroke-width:25px;stroke-miterlimit:1.5;"/>
        </g>
        <g transform="matrix(-1,0,0,1,4392,0)">
            <path d="M2122.28,1380.54L2150.08,1153.16" style="fill:none;stroke:white;stroke-width:25px;stroke-miterlimit:1.5;"/>
        </g>
        <g transform="matrix(-1,0,0,1,4392,0)">
            <path d="M2122.28,1380.54L1838.15,1289.06" style="fill:none;stroke:white;stroke-width:25px;stroke-miterlimit:1.5;"/>
        </g>
        <g transform="matrix(-1,0,0,1,4392,0)">
            <path d="M1608.11,975.079L1848.59,904.24L1993.46,821.98L2172.28,917.05" style="fill:none;stroke:white;stroke-width:25px;stroke-miterlimit:1.5;"/>
        </g>
        <path d="M1608.11,975.079L1848.59,904.24L1993.46,821.98L2172.28,917.05" style="fill:none;stroke:white;stroke-width:25px;stroke-miterlimit:1.5;"/>
        <g transform="matrix(-1,0,0,1,4392,0)">
            <path d="M1608.11,975.079L1557.54,859.021" style="fill:none;stroke:white;stroke-width:25px;stroke-miterlimit:1.5;"/>
        </g>
        <g transform="matrix(-1,0,0,1,4392,0)">
            <path d="M1608.11,975.079L1534.39,1005.6" style="fill:none;stroke:white;stroke-width:25px;stroke-miterlimit:1.5;"/>
        </g>
        <g transform="matrix(-1,0,0,1,4392,0)">
            <path d="M2196,1527.98L2148.56,1675.37" style="fill:none;stroke:white;stroke-width:25px;stroke-miterlimit:1.5;"/>
        </g>
        <g transform="matrix(-1,0,0,-1,5268.46,1606.02)">
            <path d="M2434,747L2834.46,859.021" style="fill:none;stroke:white;stroke-width:25px;stroke-miterlimit:1.5;"/>
        </g>
        <g transform="matrix(-1,0,0,1,4392,0)">
            <path d="M2723.35,827.942L2987.72,203" style="fill:none;stroke:white;stroke-width:25px;"/>
        </g>
        <path d="M2723.35,827.942L2987.72,203" style="fill:none;stroke:white;stroke-width:25px;"/>
        <g transform="matrix(-1,0,0,1,4392,0)">
            <path d="M2196,1527.98L1923.75,1604.77" style="fill:none;stroke:white;stroke-width:25px;stroke-miterlimit:1.5;"/>
        </g>
        <g transform="matrix(-1,0,0,1,4392,0)">
            <path d="M1926.74,1601.39L2150.08,1153.16" style="fill:none;stroke:white;stroke-width:25px;stroke-miterlimit:1.5;"/>
        </g>
        <path d="M2834.46,859.021L2543.41,904.24" style="fill:none;stroke:white;stroke-width:25px;stroke-linejoin:bevel;stroke-miterlimit:1.5;"/>
        <path d="M2243.44,1675.37L2148.56,1675.37L2024.51,1734.39" style="fill:none;stroke:white;stroke-width:25px;stroke-miterlimit:1.5;"/>
        <path d="M2243.44,1675.37L2367.49,1734.39" style="fill:none;stroke:white;stroke-width:25px;stroke-miterlimit:1.5;"/>
        <g transform="matrix(-1.85961,-0.234997,0.234997,1.06424,6048.18,452.762)">
            <path d="M2520.27,1049.54L2241.92,1153.16" style="fill:none;stroke:white;stroke-width:19.38px;"/>
        </g>
        <path d="M2553.85,1289.06L2709.96,1311.01" style="fill:none;stroke:white;stroke-width:25px;"/>
        <path d="M1838.15,1289.06L1668.65,1283.66" style="fill:none;stroke:white;stroke-width:25px;"/>
        <g transform="matrix(1.57754,0,0,1.57754,-679.343,-1349.38)">
            <g transform="matrix(176.963,0,0,176.963,1326.03,2184.96)">
                <path d="M0.774,-0.564L0.774,-0.72L0.204,-0.72C0.122,-0.72 0.056,-0.654 0.056,-0.572L0.056,-0.148C0.056,-0.066 0.122,-0 0.204,-0L0.774,-0L0.774,-0.156L0.211,-0.156L0.211,-0.564L0.774,-0.564Z" style="fill-rule:nonzero;"/>
            </g>
            <g transform="matrix(176.963,0,0,176.963,1471.49,2184.96)">
                <path d="M0.206,-0.72C0.124,-0.72 0.058,-0.654 0.058,-0.572L0.058,-0L0.213,-0L0.213,-0.232L0.621,-0.232L0.621,-0L0.778,-0L0.778,-0.572C0.778,-0.654 0.711,-0.72 0.629,-0.72L0.206,-0.72ZM0.213,-0.388L0.213,-0.564L0.621,-0.564L0.621,-0.388L0.213,-0.388Z" style="fill-rule:nonzero;"/>
            </g>
            <g transform="matrix(176.963,0,0,176.963,1619.43,2184.96)">
                <path d="M0.02,-0.72L0.02,-0.564L0.302,-0.564L0.302,-0L0.458,-0L0.458,-0.564L0.74,-0.564L0.74,-0.72L0.02,-0.72Z" style="fill-rule:nonzero;"/>
            </g>
            <g transform="matrix(176.963,0,0,176.963,1753.75,2184.96)">
                <path d="M0.59,-0.72L0.444,-0.545C0.414,-0.509 0.384,-0.473 0.354,-0.438L0.213,-0.438L0.213,-0.72L0.057,-0.72L0.057,-0L0.213,-0L0.213,-0.282L0.354,-0.282L0.59,-0L0.752,-0L0.752,-0.054C0.668,-0.154 0.579,-0.259 0.495,-0.36L0.752,-0.666L0.752,-0.72L0.59,-0.72Z" style="fill-rule:nonzero;"/>
            </g>
            <g transform="matrix(176.963,0,0,176.963,1894.79,2184.96)">
                <path d="M0.723,-0.72L0.058,-0.72L0.058,-0L0.723,-0L0.723,-0.156L0.215,-0.156L0.215,-0.282L0.624,-0.282L0.624,-0.438L0.215,-0.438L0.215,-0.564L0.723,-0.564L0.723,-0.72Z" style="fill-rule:nonzero;"/>
            </g>
            <g transform="matrix(176.963,0,0,176.963,2030.34,2184.96)">
                <path d="M0.653,-0.72C0.581,-0.628 0.501,-0.528 0.428,-0.436L0.202,-0.72L0.017,-0.72C0.073,-0.643 0.156,-0.529 0.219,-0.445L0.35,-0.269L0.35,-0L0.506,-0L0.506,-0.268L0.84,-0.72L0.653,-0.72Z" style="fill-rule:nonzero;"/>
            </g>
            <g transform="matrix(176.963,0,0,176.963,2172.97,2184.96)">
                <path d="M0.771,-0.572C0.771,-0.654 0.704,-0.72 0.623,-0.72L0.199,-0.72C0.117,-0.72 0.051,-0.654 0.051,-0.572L0.051,-0.43C0.051,-0.348 0.117,-0.282 0.199,-0.282L0.614,-0.282L0.614,-0.156L0.206,-0.156L0.206,-0.215L0.051,-0.215L0.051,-0.148C0.051,-0.066 0.117,-0 0.199,-0L0.623,-0C0.704,-0 0.771,-0.066 0.771,-0.148L0.771,-0.29C0.771,-0.372 0.704,-0.438 0.623,-0.438L0.206,-0.438L0.206,-0.564L0.614,-0.564L0.614,-0.505L0.771,-0.505L0.771,-0.572Z" style="fill-rule:nonzero;"/>
            </g>
        </g>
        <g transform="matrix(0.874628,0,0,0.874628,288.159,301.456)">
            <g transform="matrix(90.5147,0,0,90.5147,1359.85,2243.9)">
                <path d="M0.186,-0.612C0.18,-0.612 0.175,-0.61 0.171,-0.606C0.166,-0.601 0.164,-0.596 0.164,-0.59L0.164,-0.13C0.164,-0.124 0.166,-0.119 0.171,-0.115C0.175,-0.11 0.18,-0.108 0.186,-0.108L0.774,-0.108L0.774,-0L0.186,-0C0.168,-0 0.151,-0.003 0.136,-0.01C0.12,-0.017 0.106,-0.026 0.094,-0.038C0.082,-0.05 0.073,-0.064 0.066,-0.08C0.059,-0.095 0.056,-0.112 0.056,-0.13L0.056,-0.59C0.056,-0.608 0.059,-0.625 0.066,-0.641C0.073,-0.656 0.082,-0.67 0.094,-0.682C0.106,-0.694 0.12,-0.703 0.136,-0.71C0.151,-0.717 0.168,-0.72 0.186,-0.72L0.774,-0.72L0.774,-0.612L0.186,-0.612Z" style="fill-rule:nonzero;"/>
            </g>
            <g transform="matrix(90.5147,0,0,90.5147,1438.78,2243.9)">
                <path d="M0.057,-0.721L0.165,-0.721L0.165,-0.108L0.777,-0.108L0.777,-0L0.057,-0L0.057,-0.721Z" style="fill-rule:nonzero;"/>
            </g>
            <g transform="matrix(90.5147,0,0,90.5147,1513.82,2243.9)">
                <rect x="0.057" y="-0.72" width="0.108" height="0.72" style="fill-rule:nonzero;"/>
            </g>
            <g transform="matrix(90.5147,0,0,90.5147,1538.26,2243.9)">
                <path d="M0.718,-0.612L0.166,-0.612L0.166,-0.414L0.61,-0.414L0.61,-0.306L0.166,-0.306L0.166,-0.108L0.718,-0.108L0.718,-0L0.058,-0L0.058,-0.72L0.718,-0.72L0.718,-0.612Z" style="fill-rule:nonzero;"/>
            </g>
            <g transform="matrix(90.5147,0,0,90.5147,1612.12,2243.9)">
                <path d="M0.668,-0.72L0.776,-0.72L0.776,-0L0.648,-0L0.164,-0.576L0.164,-0L0.056,-0L0.056,-0.72L0.184,-0.72L0.668,-0.144L0.668,-0.72Z" style="fill-rule:nonzero;"/>
            </g>
            <g transform="matrix(90.5147,0,0,90.5147,1691.95,2243.9)">
                <path d="M0.74,-0.72L0.74,-0.612L0.434,-0.612L0.434,-0L0.326,-0L0.326,-0.612L0.02,-0.612L0.02,-0.72L0.74,-0.72Z" style="fill-rule:nonzero;"/>
            </g>
            <g transform="matrix(90.5147,0,0,90.5147,1795.95,2243.9)">
                <path d="M0.648,-0.72C0.666,-0.72 0.683,-0.717 0.699,-0.71C0.714,-0.703 0.728,-0.694 0.74,-0.682C0.752,-0.67 0.761,-0.656 0.768,-0.641C0.775,-0.625 0.778,-0.608 0.778,-0.59L0.778,-0L0.67,-0L0.67,-0.252L0.166,-0.252L0.166,-0L0.058,-0L0.058,-0.59C0.058,-0.608 0.061,-0.625 0.068,-0.641C0.075,-0.656 0.084,-0.67 0.096,-0.682C0.108,-0.694 0.122,-0.703 0.138,-0.71C0.153,-0.717 0.17,-0.72 0.188,-0.72L0.648,-0.72ZM0.67,-0.36L0.67,-0.59C0.67,-0.596 0.668,-0.601 0.664,-0.606C0.659,-0.61 0.654,-0.612 0.648,-0.612L0.188,-0.612C0.182,-0.612 0.177,-0.61 0.173,-0.606C0.168,-0.601 0.166,-0.596 0.166,-0.59L0.166,-0.36L0.67,-0.36Z" style="fill-rule:nonzero;"/>
            </g>
            <g transform="matrix(90.5147,0,0,90.5147,1876.15,2243.9)">
                <path d="M0.666,-0.72L0.774,-0.72L0.774,-0.13C0.774,-0.112 0.771,-0.095 0.764,-0.08C0.757,-0.064 0.748,-0.05 0.736,-0.038C0.724,-0.026 0.71,-0.017 0.695,-0.01C0.679,-0.003 0.662,-0 0.644,-0L0.184,-0C0.166,-0 0.149,-0.003 0.134,-0.01C0.118,-0.017 0.104,-0.026 0.092,-0.038C0.08,-0.05 0.071,-0.064 0.064,-0.08C0.057,-0.095 0.054,-0.112 0.054,-0.13L0.054,-0.72L0.162,-0.72L0.162,-0.13C0.162,-0.124 0.164,-0.119 0.169,-0.115C0.173,-0.11 0.178,-0.108 0.184,-0.108L0.644,-0.108C0.65,-0.108 0.655,-0.11 0.66,-0.115C0.664,-0.119 0.666,-0.124 0.666,-0.13L0.666,-0.72Z" style="fill-rule:nonzero;"/>
            </g>
            <g transform="matrix(90.5147,0,0,90.5147,1955.62,2243.9)">
                <path d="M0.74,-0.72L0.74,-0.612L0.434,-0.612L0.434,-0L0.326,-0L0.326,-0.612L0.02,-0.612L0.02,-0.72L0.74,-0.72Z" style="fill-rule:nonzero;"/>
            </g>
            <g transform="matrix(90.5147,0,0,90.5147,2029.75,2243.9)">
                <path d="M0.794,-0.72L0.794,-0L0.686,-0L0.686,-0.306L0.165,-0.306L0.165,-0L0.057,-0L0.057,-0.72L0.165,-0.72L0.165,-0.414L0.686,-0.414L0.686,-0.72L0.794,-0.72Z" style="fill-rule:nonzero;"/>
            </g>
            <g transform="matrix(90.5147,0,0,90.5147,2111.3,2243.9)">
                <path d="M0.718,-0.612L0.166,-0.612L0.166,-0.414L0.61,-0.414L0.61,-0.306L0.166,-0.306L0.166,-0.108L0.718,-0.108L0.718,-0L0.058,-0L0.058,-0.72L0.718,-0.72L0.718,-0.612Z" style="fill-rule:nonzero;"/>
            </g>
            <g transform="matrix(90.5147,0,0,90.5147,2185.16,2243.9)">
                <path d="M0.668,-0.72L0.776,-0.72L0.776,-0L0.648,-0L0.164,-0.576L0.164,-0L0.056,-0L0.056,-0.72L0.184,-0.72L0.668,-0.144L0.668,-0.72Z" style="fill-rule:nonzero;"/>
            </g>
            <g transform="matrix(90.5147,0,0,90.5147,2265,2243.9)">
                <path d="M0.74,-0.72L0.74,-0.612L0.434,-0.612L0.434,-0L0.326,-0L0.326,-0.612L0.02,-0.612L0.02,-0.72L0.74,-0.72Z" style="fill-rule:nonzero;"/>
            </g>
            <g transform="matrix(90.5147,0,0,90.5147,2338.23,2243.9)">
                <rect x="0.057" y="-0.72" width="0.108" height="0.72" style="fill-rule:nonzero;"/>
            </g>
            <g transform="matrix(90.5147,0,0,90.5147,2362.66,2243.9)">
                <path d="M0.186,-0.612C0.18,-0.612 0.175,-0.61 0.171,-0.606C0.166,-0.601 0.164,-0.596 0.164,-0.59L0.164,-0.13C0.164,-0.124 0.166,-0.119 0.171,-0.115C0.175,-0.11 0.18,-0.108 0.186,-0.108L0.774,-0.108L0.774,-0L0.186,-0C0.168,-0 0.151,-0.003 0.136,-0.01C0.12,-0.017 0.106,-0.026 0.094,-0.038C0.082,-0.05 0.073,-0.064 0.066,-0.08C0.059,-0.095 0.056,-0.112 0.056,-0.13L0.056,-0.59C0.056,-0.608 0.059,-0.625 0.066,-0.641C0.073,-0.656 0.082,-0.67 0.094,-0.682C0.106,-0.694 0.12,-0.703 0.136,-0.71C0.151,-0.717 0.168,-0.72 0.186,-0.72L0.774,-0.72L0.774,-0.612L0.186,-0.612Z" style="fill-rule:nonzero;"/>
            </g>
            <g transform="matrix(90.5147,0,0,90.5147,2441.59,2243.9)">
                <path d="M0.648,-0.72C0.666,-0.72 0.683,-0.717 0.699,-0.71C0.714,-0.703 0.728,-0.694 0.74,-0.682C0.752,-0.67 0.761,-0.656 0.768,-0.641C0.775,-0.625 0.778,-0.608 0.778,-0.59L0.778,-0L0.67,-0L0.67,-0.252L0.166,-0.252L0.166,-0L0.058,-0L0.058,-0.59C0.058,-0.608 0.061,-0.625 0.068,-0.641C0.075,-0.656 0.084,-0.67 0.096,-0.682C0.108,-0.694 0.122,-0.703 0.138,-0.71C0.153,-0.717 0.17,-0.72 0.188,-0.72L0.648,-0.72ZM0.67,-0.36L0.67,-0.59C0.67,-0.596 0.668,-0.601 0.664,-0.606C0.659,-0.61 0.654,-0.612 0.648,-0.612L0.188,-0.612C0.182,-0.612 0.177,-0.61 0.173,-0.606C0.168,-0.601 0.166,-0.596 0.166,-0.59L0.166,-0.36L0.67,-0.36Z" style="fill-rule:nonzero;"/>
            </g>
            <g transform="matrix(90.5147,0,0,90.5147,2521.79,2243.9)">
                <path d="M0.74,-0.72L0.74,-0.612L0.434,-0.612L0.434,-0L0.326,-0L0.326,-0.612L0.02,-0.612L0.02,-0.72L0.74,-0.72Z" style="fill-rule:nonzero;"/>
            </g>
            <g transform="matrix(90.5147,0,0,90.5147,2595.02,2243.9)">
                <path d="M0.718,-0.612L0.166,-0.612L0.166,-0.414L0.61,-0.414L0.61,-0.306L0.166,-0.306L0.166,-0.108L0.718,-0.108L0.718,-0L0.058,-0L0.058,-0.72L0.718,-0.72L0.718,-0.612Z" style="fill-rule:nonzero;"/>
            </g>
            <g transform="matrix(90.5147,0,0,90.5147,2668.88,2243.9)">
                <path d="M0.648,-0.72C0.666,-0.72 0.683,-0.717 0.699,-0.71C0.714,-0.703 0.728,-0.694 0.74,-0.682C0.752,-0.67 0.761,-0.656 0.768,-0.641C0.775,-0.625 0.778,-0.608 0.778,-0.59L0.778,-0.13C0.778,-0.112 0.775,-0.095 0.768,-0.08C0.761,-0.064 0.752,-0.05 0.74,-0.038C0.728,-0.026 0.714,-0.017 0.699,-0.01C0.683,-0.003 0.666,-0 0.648,-0L0.058,-0L0.058,-0.72L0.648,-0.72ZM0.67,-0.59C0.67,-0.596 0.668,-0.601 0.664,-0.606C0.659,-0.61 0.654,-0.612 0.648,-0.612L0.188,-0.612C0.182,-0.612 0.177,-0.61 0.173,-0.606C0.168,-0.601 0.166,-0.596 0.166,-0.59L0.166,-0.13C0.166,-0.124 0.168,-0.119 0.173,-0.115C0.177,-0.11 0.182,-0.108 0.188,-0.108L0.648,-0.108C0.654,-0.108 0.659,-0.11 0.664,-0.115C0.668,-0.119 0.67,-0.124 0.67,-0.13L0.67,-0.59Z" style="fill-rule:nonzero;"/>
            </g>
            <g transform="matrix(90.5147,0,0,90.5147,2779.67,2243.9)">
                <path d="M0.74,-0.72L0.74,-0.612L0.434,-0.612L0.434,-0L0.326,-0L0.326,-0.612L0.02,-0.612L0.02,-0.72L0.74,-0.72Z" style="fill-rule:nonzero;"/>
            </g>
            <g transform="matrix(90.5147,0,0,90.5147,2852.89,2243.9)">
                <path d="M0.057,-0.721L0.165,-0.721L0.165,-0.108L0.777,-0.108L0.777,-0L0.057,-0L0.057,-0.721Z" style="fill-rule:nonzero;"/>
            </g>
            <g transform="matrix(90.5147,0,0,90.5147,2927.93,2243.9)">
                <path d="M0.771,-0.548L0.663,-0.548L0.663,-0.59C0.663,-0.596 0.661,-0.601 0.657,-0.606C0.652,-0.61 0.647,-0.612 0.641,-0.612L0.181,-0.612C0.175,-0.612 0.17,-0.61 0.166,-0.606C0.161,-0.601 0.159,-0.596 0.159,-0.59L0.159,-0.436C0.159,-0.43 0.161,-0.425 0.166,-0.421C0.17,-0.416 0.175,-0.414 0.181,-0.414L0.641,-0.414C0.659,-0.414 0.676,-0.411 0.692,-0.404C0.707,-0.397 0.721,-0.388 0.733,-0.376C0.745,-0.364 0.754,-0.35 0.761,-0.335C0.768,-0.319 0.771,-0.302 0.771,-0.284L0.771,-0.13C0.771,-0.112 0.768,-0.095 0.761,-0.08C0.754,-0.064 0.745,-0.05 0.733,-0.038C0.721,-0.026 0.707,-0.017 0.692,-0.01C0.676,-0.003 0.659,-0 0.641,-0L0.181,-0C0.163,-0 0.146,-0.003 0.131,-0.01C0.115,-0.017 0.101,-0.026 0.089,-0.038C0.077,-0.05 0.068,-0.064 0.061,-0.08C0.054,-0.095 0.051,-0.112 0.051,-0.13L0.051,-0.172L0.159,-0.172L0.159,-0.13C0.159,-0.124 0.161,-0.119 0.166,-0.115C0.17,-0.11 0.175,-0.108 0.181,-0.108L0.641,-0.108C0.647,-0.108 0.652,-0.11 0.657,-0.115C0.661,-0.119 0.663,-0.124 0.663,-0.13L0.663,-0.284C0.663,-0.29 0.661,-0.295 0.657,-0.3C0.652,-0.304 0.647,-0.306 0.641,-0.306L0.181,-0.306C0.163,-0.306 0.146,-0.309 0.131,-0.316C0.115,-0.323 0.101,-0.332 0.089,-0.344C0.077,-0.356 0.068,-0.37 0.061,-0.386C0.054,-0.401 0.051,-0.418 0.051,-0.436L0.051,-0.59C0.051,-0.608 0.054,-0.625 0.061,-0.641C0.068,-0.656 0.077,-0.67 0.089,-0.682C0.101,-0.694 0.115,-0.703 0.131,-0.71C0.146,-0.717 0.163,-0.72 0.181,-0.72L0.641,-0.72C0.659,-0.72 0.676,-0.717 0.692,-0.71C0.707,-0.703 0.721,-0.694 0.733,-0.682C0.745,-0.67 0.754,-0.656 0.761,-0.641C0.768,-0.625 0.771,-0.608 0.771,-0.59L0.771,-0.548Z" style="fill-rule:nonzero;"/>
            </g>
        </g>
    </g>
</svg>
