<?xml version="1.0" encoding="UTF-8" standalone="no"?><!DOCTYPE svg PUBLIC "-//W3C//DTD SVG 1.1//EN" "http://www.w3.org/Graphics/SVG/1.1/DTD/svg11.dtd"><svg width="2080px" height="1471px" version="1.1" xmlns="http://www.w3.org/2000/svg" xmlns:xlink="http://www.w3.org/1999/xlink" xml:space="preserve" xmlns:serif="http://www.serif.com/" style="fill-rule:evenodd;clip-rule:evenodd;stroke-linejoin:round;stroke-miterlimit:2;"><rect id="Artboard1" x="0" y="0" width="2079.7" height="1470.78" style="fill:none;"/><clipPath id="_clip1"><rect x="0" y="0" width="2079.7" height="1470.78"/></clipPath><g clip-path="url(#_clip1)"><g id="Layer1"><path d="M2.634,796.757l35.012,-176.502l105.895,0l34.797,176.502l-64.009,0l-3.652,-26.104l-40.382,0l-3.651,26.104l-64.01,0Zm73.89,-69.451l27.924,0l-9.451,-66.578l-9.022,0l-9.451,66.578Z" style="fill-rule:nonzero;"/><path d="M215.283,796.757l-23.843,-22.751l0,-153.751l61.217,0l0,139.861l28.568,0l0,-139.861l61.217,0l0,153.751l-23.842,22.751l-103.317,0Z" style="fill-rule:nonzero;"/><path d="M398.719,796.757l0,-129.323l-41.885,0l0,-47.179l144.987,0l0,47.179l-41.885,0l0,129.323l-61.217,0Z" style="fill-rule:nonzero;"/><path d="M516.213,796.757l0,-176.502l61.217,0l0,62.027l30.501,0l0,-62.027l61.217,0l0,176.502l-61.217,0l0,-67.535l-30.501,0l0,67.535l-61.217,0Z" style="fill-rule:nonzero;"/><path d="M690.627,796.757l0,-176.502l138.114,0l0,47.179l-76.897,0l0,22.033l67.876,0l0,38.078l-67.876,0l0,22.033l76.897,0l0,47.179l-138.114,0Z" style="fill-rule:nonzero;"/><path d="M848.932,796.757l0,-176.502l55.418,0l34.582,86.215l0,-86.215l54.988,0l0,176.502l-54.988,0l-34.797,-90.047l-0.215,90.047l-54.988,0Z" style="fill-rule:nonzero;"/><path d="M1050.2,796.757l0,-129.323l-41.885,0l0,-47.179l144.988,0l0,47.179l-41.886,0l0,129.323l-61.217,0Z" style="fill-rule:nonzero;"/><path d="M1164.04,796.757l0,-47.179l21.264,0l0,-82.144l-21.264,0l0,-47.179l100.739,0l0,47.179l-21.265,0l0,82.144l21.265,0l0,47.179l-100.739,0Z" style="fill-rule:nonzero;"/><path d="M1304.09,796.757l-23.843,-22.751l0,-131l23.843,-22.751l104.391,0l23.842,22.751l0,51.251l-62.72,0l0,-37.361l-28.139,0l0,103.22l28.568,0l0,-38.079l62.936,0l0,51.969l-23.843,22.751l-105.035,0Z" style="fill-rule:nonzero;"/><path d="M1443.7,796.757l35.011,-176.502l105.895,0l34.797,176.502l-64.009,0l-3.652,-26.104l-40.382,0l-3.651,26.104l-64.009,0Zm73.889,-69.451l27.924,0l-9.451,-66.578l-9.021,0l-9.452,66.578Z" style="fill-rule:nonzero;"/><path d="M1648.4,796.757l0,-129.323l-41.886,0l0,-47.179l144.988,0l0,47.179l-41.886,0l0,129.323l-61.216,0Z" style="fill-rule:nonzero;"/><path d="M1765.9,796.757l0,-176.502l138.114,0l0,47.179l-76.897,0l0,22.033l67.876,0l0,38.078l-67.876,0l0,22.033l76.897,0l0,47.179l-138.114,0Z" style="fill-rule:nonzero;"/><path d="M1924.2,796.757l0,-176.502l119.857,0l35.656,36.162l0,104.417l-35.656,35.923l-119.857,0Zm61.217,-36.641l33.079,0l0,-103.22l-33.079,0l0,103.22Z" style="fill-rule:nonzero;"/><path d="M62.391,573.638l-62.391,-62.392l0,-289.473l62.391,-62.392l213.031,0l62.953,62.392l0,83.75l-102.299,0l0,-46.653l-20.235,-19.673l-90.496,0l-20.235,19.673l0,215.279l20.235,19.673l93.868,0l20.797,-19.673l0,-47.215l101.738,0l0,84.312l-62.392,62.392l-216.965,0Z" style="fill-rule:nonzero;"/><path d="M387.839,573.638l0,-414.257l105.11,0l0,328.82l189.985,0l0,85.437l-295.095,0Z" style="fill-rule:nonzero;"/><path d="M713.848,573.638l0,-79.254l46.091,0l-1.124,-255.749l-44.967,0l0,-79.254l191.109,0l0,79.254l-45.529,0l-1.124,255.749l46.653,0l0,79.254l-191.109,0Z" style="fill-rule:nonzero;"/><path d="M966.787,573.638l0,-414.257l314.768,0l0,85.437l-209.658,0l0,76.444l188.86,0l0,79.254l-188.86,0l0,87.685l209.658,0l0,85.437l-314.768,0Z" style="fill-rule:nonzero;"/><path d="M1349.01,573.638l0,-414.257l114.665,0l139.397,248.442l0,-248.442l97.803,0l0,414.257l-97.803,0l-136.024,-242.821l-20.235,0l0,242.821l-97.803,0Z" style="fill-rule:nonzero;"/><path d="M1858.82,573.638l0,-328.82l-115.789,0l0,-85.437l336.689,0l0,85.437l-115.79,0l0,328.82l-105.11,0Z" style="fill-rule:nonzero;"/><path d="M0,1311.61l0,-465.882l118.209,0l0,173.204l158.665,0l0,-173.204l118.209,0l0,465.882l-118.209,0l0,-200.386l-158.665,0l0,200.386l-118.209,0Z" style="fill-rule:nonzero;"/><path d="M572.712,1311.61l0,-369.798l-130.219,0l0,-96.084l378.647,0l0,96.084l-130.219,0l0,369.798l-118.209,0Z" style="fill-rule:nonzero;"/><path d="M964.634,1311.61l0,-369.798l-130.219,0l0,-96.084l378.647,0l0,96.084l-130.219,0l0,369.798l-118.209,0Z" style="fill-rule:nonzero;"/><path d="M1260.47,1311.61l0,-465.882l311.641,0l70.167,70.167l0,179.525l-70.167,70.167l-193.432,0l0,146.023l-118.209,0Zm118.209,-235.786l127.058,0l22.125,-22.124l0,-96.085l-22.125,-22.124l-127.058,0l0,140.333Z" style="fill-rule:nonzero;"/><path d="M1698.54,1311.61l0,-94.82l242.739,0l22.124,-22.125l0,-51.835l-22.124,-22.124l-190.904,0l-70.167,-70.799l0,-134.012l70.167,-70.167l304.688,0l0,94.82l-236.418,0l-22.125,22.124l0,41.089l22.125,22.125l190.904,0l70.167,70.166l0,145.391l-70.167,70.167l-311.009,0Z" style="fill-rule:nonzero;"/><rect x="0" y="0" width="2079.72" height="110" style="fill:#3f63f1;"/><rect x="0" y="1360.78" width="2079.72" height="110" style="fill:#ae2100;"/></g></g></svg>