<?xml version="1.0" encoding="UTF-8" standalone="no"?><!DOCTYPE svg PUBLIC "-//W3C//DTD SVG 1.1//EN" "http://www.w3.org/Graphics/SVG/1.1/DTD/svg11.dtd"><svg width="100%" height="100%" viewBox="0 0 500 353" version="1.1" xmlns="http://www.w3.org/2000/svg" xmlns:xlink="http://www.w3.org/1999/xlink" xml:space="preserve" xmlns:serif="http://www.serif.com/" style="fill-rule:evenodd;clip-rule:evenodd;stroke-linejoin:round;stroke-miterlimit:2;"><rect id="Artboard1" x="0" y="0" width="499.128" height="352.986" style="fill:none;"/><clipPath id="_clip1"><rect x="0" y="0" width="499.128" height="352.986"/></clipPath><g clip-path="url(#_clip1)"><g id="Layer1"><path d="M0.632,190.965l8.403,-42.361l25.415,0l8.351,42.361l-15.362,0l-0.877,-6.265l-9.691,0l-0.877,6.265l-15.362,0Zm17.734,-16.669l6.701,0l-2.268,-15.979l-2.165,0l-2.268,15.979Z" style="fill-rule:nonzero;"/><path d="M51.668,190.965l-5.722,-5.461l0,-36.9l14.692,0l0,33.567l6.856,0l0,-33.567l14.692,0l0,36.9l-5.722,5.461l-24.796,0Z" style="fill-rule:nonzero;"/><path d="M95.693,190.965l0,-31.038l-10.053,0l0,-11.323l34.797,0l0,11.323l-10.052,0l0,31.038l-14.692,0Z" style="fill-rule:nonzero;"/><path d="M123.891,190.965l0,-42.361l14.692,0l0,14.886l7.32,0l0,-14.886l14.692,0l0,42.361l-14.692,0l0,-16.209l-7.32,0l0,16.209l-14.692,0Z" style="fill-rule:nonzero;"/><path d="M165.751,190.965l0,-42.361l33.147,0l0,11.323l-18.455,0l0,5.288l16.29,0l0,9.139l-16.29,0l0,5.288l18.455,0l0,11.323l-33.147,0Z" style="fill-rule:nonzero;"/><path d="M203.744,190.965l0,-42.361l13.3,0l8.3,20.692l0,-20.692l13.197,0l0,42.361l-13.197,0l-8.352,-21.612l-0.051,21.612l-13.197,0Z" style="fill-rule:nonzero;"/><path d="M252.047,190.965l0,-31.038l-10.052,0l0,-11.323l34.797,0l0,11.323l-10.053,0l0,31.038l-14.692,0Z" style="fill-rule:nonzero;"/><path d="M279.369,190.965l0,-11.323l5.104,0l0,-19.715l-5.104,0l0,-11.323l24.178,0l0,11.323l-5.104,0l0,19.715l5.104,0l0,11.323l-24.178,0Z" style="fill-rule:nonzero;"/><path d="M312.981,190.965l-5.723,-5.461l0,-31.44l5.723,-5.46l25.053,0l5.723,5.46l0,12.3l-15.053,0l0,-8.966l-6.753,0l0,24.773l6.856,0l0,-9.139l15.104,0l0,12.472l-5.722,5.461l-25.208,0Z" style="fill-rule:nonzero;"/><path d="M346.489,190.965l8.403,-42.361l25.414,0l8.352,42.361l-15.363,0l-0.876,-6.265l-9.692,0l-0.876,6.265l-15.362,0Zm17.733,-16.669l6.702,0l-2.268,-15.979l-2.165,0l-2.269,15.979Z" style="fill-rule:nonzero;"/><path d="M395.617,190.965l0,-31.038l-10.052,0l0,-11.323l34.797,0l0,11.323l-10.053,0l0,31.038l-14.692,0Z" style="fill-rule:nonzero;"/><path d="M423.816,190.965l0,-42.361l33.147,0l0,11.323l-18.455,0l0,5.288l16.29,0l0,9.139l-16.29,0l0,5.288l18.455,0l0,11.323l-33.147,0Z" style="fill-rule:nonzero;"/><path d="M461.809,190.965l0,-42.361l28.765,0l8.558,8.679l0,25.06l-8.558,8.622l-28.765,0Zm14.692,-8.794l7.939,0l0,-24.773l-7.939,0l0,24.773Z" style="fill-rule:nonzero;"/><path d="M14.974,137.213l-14.974,-14.974l0,-69.474l14.974,-14.974l51.127,0l15.109,14.974l0,20.1l-24.552,0l0,-11.197l-4.856,-4.721l-21.719,0l-4.857,4.721l0,51.667l4.857,4.722l22.528,0l4.992,-4.722l0,-11.331l24.416,0l0,20.235l-14.973,14.974l-52.072,0Z" style="fill-rule:nonzero;"/><path d="M93.081,137.213l0,-99.422l25.227,0l0,78.917l45.596,0l0,20.505l-70.823,0Z" style="fill-rule:nonzero;"/><path d="M171.324,137.213l0,-19.021l11.061,0l-0.269,-61.38l-10.792,0l0,-19.021l45.866,0l0,19.021l-10.927,0l-0.27,61.38l11.197,0l0,19.021l-45.866,0Z" style="fill-rule:nonzero;"/><path d="M232.029,137.213l0,-99.422l75.544,0l0,20.505l-50.318,0l0,18.346l45.327,0l0,19.021l-45.327,0l0,21.045l50.318,0l0,20.505l-75.544,0Z" style="fill-rule:nonzero;"/><path d="M323.761,137.213l0,-99.422l27.52,0l33.455,59.626l0,-59.626l23.473,0l0,99.422l-23.473,0l-32.646,-58.277l-4.856,0l0,58.277l-23.473,0Z" style="fill-rule:nonzero;"/><path d="M446.116,137.213l0,-78.917l-27.79,0l0,-20.505l80.806,0l0,20.505l-27.79,0l0,78.917l-25.226,0Z" style="fill-rule:nonzero;"/><g transform="matrix(2.57901,0,0,2.57901,-2602.7,-2116.58)"><g transform="matrix(59.3664,0,0,59.3664,1005.03,942.91)"><path d="M0.07,0l0,-0.737l0.187,0l0,0.274l0.251,0l0,-0.274l0.187,0l0,0.737l-0.187,0l0,-0.317l-0.251,0l0,0.317l-0.187,0Z" style="fill-rule:nonzero;"/></g><g transform="matrix(59.3664,0,0,59.3664,1048.66,942.91)"><path d="M0.211,0l0,-0.585l-0.206,0l0,-0.152l0.599,0l0,0.152l-0.206,0l0,0.585l-0.187,0Z" style="fill-rule:nonzero;"/></g><g transform="matrix(59.3664,0,0,59.3664,1087.25,942.91)"><path d="M0.211,0l0,-0.585l-0.206,0l0,-0.152l0.599,0l0,0.152l-0.206,0l0,0.585l-0.187,0Z" style="fill-rule:nonzero;"/></g><g transform="matrix(59.3664,0,0,59.3664,1121.62,942.91)"><path d="M0.07,0l0,-0.737l0.493,0l0.111,0.111l0,0.284l-0.111,0.111l-0.306,0l0,0.231l-0.187,0Zm0.187,-0.373l0.201,0l0.035,-0.035l0,-0.152l-0.035,-0.035l-0.201,0l0,0.222Z" style="fill-rule:nonzero;"/></g><g transform="matrix(59.3664,0,0,59.3664,1162.53,942.91)"><path d="M0.074,0l0,-0.15l0.384,0l0.035,-0.035l0,-0.082l-0.035,-0.035l-0.302,0l-0.111,-0.112l0,-0.212l0.111,-0.111l0.482,0l0,0.15l-0.374,0l-0.035,0.035l0,0.065l0.035,0.035l0.302,0l0.111,0.111l0,0.23l-0.111,0.111l-0.492,0Z" style="fill-rule:nonzero;"/></g></g><rect x="0" y="0" width="499.132" height="26.4" style="fill:#3f63f1;"/><rect x="0" y="326.586" width="499.132" height="26.4" style="fill:#ae2100;"/></g></g></svg>